<mxfile host="app.diagrams.net" modified="2024-02-27T01:52:26.650Z" agent="Mozilla/5.0 (Macintosh; Intel Mac OS X 10_15_7) AppleWebKit/537.36 (KHTML, like Gecko) Chrome/121.0.0.0 Safari/537.36" version="22.1.21" etag="OtJFuwGirYIdu9QVDzb5" type="github">
  <diagram name="Page-1" id="GnvURoskgF6pgVR7ltKW">
    <mxGraphModel>
      <root>
        <mxCell id="0" />
        <mxCell id="1" parent="0" />
      </root>
    </mxGraphModel>
  </diagram>
</mxfile>
